<svg xmlns="http://www.w3.org/2000/svg" xmlns:xlink="http://www.w3.org/1999/xlink" width="1920" zoomAndPan="magnify" viewBox="0 0 1440 809.999993" height="1080" preserveAspectRatio="xMidYMid meet" version="1.0"><defs><g/></defs><rect x="-144" width="1728" fill="#ffffff" y="-80.999999" height="971.999992" fill-opacity="1"/><rect x="-144" width="1728" fill="#5271ff" y="-80.999999" height="971.999992" fill-opacity="1"/><g fill="#ffffff" fill-opacity="1"><g transform="translate(457.263271, 448.613739)"><g><path d="M 59.277344 -18.824219 C 53.550781 -16.789062 48.71875 -15.390625 44.648438 -15.390625 C 37.398438 -15.390625 33.453125 -19.714844 33.453125 -27.984375 L 33.453125 -52.789062 L 59.402344 -52.789062 L 59.402344 -69.960938 L 33.453125 -69.960938 L 33.453125 -89.042969 L 15.265625 -85.097656 L 15.265625 -69.960938 L 2.796875 -69.960938 L 2.796875 -52.789062 L 15.265625 -52.789062 L 15.265625 -26.96875 C 15.265625 -6.867188 27.476562 1.527344 41.46875 1.527344 C 49.863281 1.527344 58.511719 -1.527344 62.328125 -4.070312 Z M 59.277344 -18.824219 "/></g></g></g><g fill="#ffffff" fill-opacity="1"><g transform="translate(524.17039, 448.613739)"><g><path d="M 41.976562 -71.488281 C 21.878906 -71.488281 5.597656 -56.097656 5.597656 -34.980469 C 5.597656 -13.992188 21.625 1.527344 41.976562 1.527344 C 62.457031 1.527344 78.484375 -13.863281 78.484375 -34.980469 C 78.484375 -56.097656 62.203125 -71.488281 41.976562 -71.488281 Z M 41.976562 -54.1875 C 52.152344 -54.1875 60.039062 -46.429688 60.039062 -34.980469 C 60.039062 -23.40625 52.152344 -15.773438 41.976562 -15.773438 C 31.800781 -15.773438 23.914062 -23.40625 23.914062 -34.980469 C 23.914062 -46.429688 31.800781 -54.1875 41.976562 -54.1875 Z M 41.976562 -54.1875 "/></g></g></g><g fill="#ffffff" fill-opacity="1"><g transform="translate(608.122286, 448.613739)"><g><path d="M 41.976562 -71.488281 C 21.878906 -71.488281 5.597656 -56.097656 5.597656 -34.980469 C 5.597656 -13.992188 21.625 1.527344 41.976562 1.527344 C 62.457031 1.527344 78.484375 -13.863281 78.484375 -34.980469 C 78.484375 -56.097656 62.203125 -71.488281 41.976562 -71.488281 Z M 41.976562 -54.1875 C 52.152344 -54.1875 60.039062 -46.429688 60.039062 -34.980469 C 60.039062 -23.40625 52.152344 -15.773438 41.976562 -15.773438 C 31.800781 -15.773438 23.914062 -23.40625 23.914062 -34.980469 C 23.914062 -46.429688 31.800781 -54.1875 41.976562 -54.1875 Z M 41.976562 -54.1875 "/></g></g></g><g fill="#ffffff" fill-opacity="1"><g transform="translate(692.074182, 448.613739)"><g><path d="M 7.378906 0 L 25.566406 0 L 25.566406 -97.945312 L 7.378906 -97.945312 Z M 7.378906 0 "/></g></g></g><g fill="#ffffff" fill-opacity="1"><g transform="translate(724.89175, 448.613739)"><g><path d="M 47.574219 -71.488281 C 37.777344 -71.488281 30.273438 -66.910156 25.441406 -60.167969 L 25.441406 -97.945312 L 7.25 -97.945312 L 7.25 0 L 25.441406 0 L 25.441406 -9.414062 C 30.402344 -2.796875 37.652344 1.527344 47.574219 1.527344 C 65.761719 1.527344 79.5 -13.484375 79.5 -34.980469 C 79.5 -56.605469 65.507812 -71.488281 47.574219 -71.488281 Z M 43.375 -15.773438 C 33.199219 -15.773438 25.441406 -23.40625 25.441406 -34.980469 C 25.441406 -46.429688 33.199219 -54.1875 43.375 -54.1875 C 53.550781 -54.1875 61.058594 -46.429688 61.058594 -34.980469 C 61.058594 -23.40625 53.425781 -15.773438 43.375 -15.773438 Z M 43.375 -15.773438 "/></g></g></g><g fill="#ffffff" fill-opacity="1"><g transform="translate(809.861248, 448.613739)"><g><path d="M 16.410156 -102.269531 C 10.050781 -102.269531 5.089844 -97.820312 5.089844 -91.585938 C 5.089844 -85.351562 10.050781 -80.773438 16.410156 -80.773438 C 23.023438 -80.773438 27.730469 -85.351562 27.730469 -91.585938 C 27.730469 -97.820312 23.023438 -102.269531 16.410156 -102.269531 Z M 7.25 0 L 25.441406 0 L 25.441406 -69.960938 L 7.25 -69.960938 Z M 7.25 0 "/></g></g></g><g fill="#ffffff" fill-opacity="1"><g transform="translate(842.678793, 448.613739)"><g><path d="M 47.320312 -71.488281 C 37.398438 -71.488281 29.765625 -66.910156 25.441406 -57.75 L 25.441406 -69.960938 L 7.25 -69.960938 L 7.25 0 L 25.441406 0 L 25.441406 -31.164062 C 25.441406 -47.699219 35.363281 -52.789062 46.9375 -52.789062 C 48.972656 -52.789062 49.992188 -52.660156 51.390625 -52.535156 L 51.390625 -71.234375 C 50.246094 -71.359375 48.972656 -71.488281 47.320312 -71.488281 Z M 47.320312 -71.488281 "/></g></g></g><g fill="#ffffff" fill-opacity="1"><g transform="translate(896.738714, 448.613739)"><g><path d="M 60.546875 -97.945312 L 60.546875 -60.167969 C 55.714844 -66.910156 48.335938 -71.488281 38.414062 -71.488281 C 20.480469 -71.488281 6.613281 -56.605469 6.613281 -34.980469 C 6.613281 -13.484375 20.351562 1.527344 38.542969 1.527344 C 48.335938 1.527344 55.714844 -2.796875 60.546875 -9.414062 L 60.546875 0 L 78.738281 0 L 78.738281 -97.945312 Z M 42.613281 -15.773438 C 32.5625 -15.773438 24.933594 -23.40625 24.933594 -34.980469 C 24.933594 -46.429688 32.4375 -54.1875 42.613281 -54.1875 C 52.789062 -54.1875 60.546875 -46.429688 60.546875 -34.980469 C 60.546875 -23.40625 52.789062 -15.773438 42.613281 -15.773438 Z M 42.613281 -15.773438 "/></g></g></g></svg>