<svg xmlns="http://www.w3.org/2000/svg" width="1024" height="193" fill="none"><path fill="#38B77B" d="M0 23.051c0-12.702 10.297-23 23-23h146c12.703 0 23 10.298 23 23v146c0 12.703-10.297 23-23 23H23c-12.703 0-23-10.297-23-23v-146zm208 0c0-12.702 10.297-23 23-23h146c12.703 0 23 10.298 23 23v146c0 12.703-10.297 23-23 23H231c-12.703 0-23-10.297-23-23v-146zm208 0c0-12.702 10.297-23 23-23h146c12.703 0 23 10.298 23 23v146c0 12.703-10.297 23-23 23H439c-12.703 0-23-10.297-23-23v-146zm208 0c0-12.702 10.297-23 23-23h146c12.703 0 23 10.298 23 23v146c0 12.703-10.297 23-23 23H647c-12.703 0-23-10.297-23-23v-146zm208 0c0-12.702 10.297-23 23-23h146c12.7 0 23 10.298 23 23v146c0 12.703-10.3 23-23 23H855c-12.703 0-23-10.297-23-23v-146z"/><path fill="#fff" d="M301.159 43.263c.921-2.715 4.761-2.715 5.682 0l12.409 36.576a3 3 0 0 0 2.841 2.037h39.87c2.938 0 4.125 3.784 1.714 5.462l-32.03 22.288a3 3 0 0 0-1.128 3.426l12.287 36.216c.93 2.742-2.179 5.08-4.555 3.427l-32.535-22.64a3 3 0 0 0-3.428 0l-32.535 22.64c-2.376 1.653-5.485-.685-4.555-3.427l12.287-36.216a3 3 0 0 0-1.128-3.426l-32.03-22.288c-2.411-1.678-1.224-5.462 1.714-5.462h39.87a3 3 0 0 0 2.841-2.037l12.409-36.576zm-205 0c.921-2.715 4.761-2.715 5.682 0l12.409 36.576a3 3 0 0 0 2.841 2.037h39.87c2.938 0 4.125 3.784 1.714 5.462l-32.03 22.288a3 3 0 0 0-1.128 3.426l12.287 36.216c.93 2.742-2.179 5.08-4.555 3.427l-32.535-22.64a3 3 0 0 0-3.427 0l-32.536 22.64c-2.376 1.653-5.485-.685-4.555-3.427l12.287-36.216a3 3 0 0 0-1.128-3.426l-32.03-22.288c-2.411-1.678-1.224-5.462 1.714-5.462h39.87a3 3 0 0 0 2.841-2.037l12.41-36.576zm413 0c.921-2.715 4.761-2.715 5.682 0l12.409 36.576a3 3 0 0 0 2.841 2.037h39.87c2.938 0 4.125 3.784 1.714 5.462l-32.03 22.288a3 3 0 0 0-1.128 3.426l12.287 36.216c.93 2.742-2.179 5.08-4.555 3.427l-32.535-22.64a3 3 0 0 0-3.428 0l-32.535 22.64c-2.376 1.653-5.485-.685-4.555-3.427l12.287-36.216a3 3 0 0 0-1.128-3.426l-32.03-22.288c-2.411-1.678-1.224-5.462 1.714-5.462h39.87a3 3 0 0 0 2.841-2.037l12.409-36.576zm414 0c.921-2.715 4.761-2.715 5.682 0l12.409 36.576a3 3 0 0 0 2.841 2.037h39.87c2.938 0 4.125 3.784 1.714 5.462l-32.03 22.288a3 3 0 0 0-1.128 3.426l12.287 36.216c.93 2.742-2.179 5.08-4.555 3.427l-32.535-22.64a3 3 0 0 0-3.428 0l-32.535 22.64c-2.376 1.653-5.485-.685-4.555-3.427l12.287-36.216a3 3 0 0 0-1.128-3.426l-32.03-22.288c-2.411-1.678-1.224-5.462 1.714-5.462h39.87a3 3 0 0 0 2.841-2.037l12.409-36.576zm-207 0c.921-2.715 4.761-2.715 5.682 0l12.409 36.576a3 3 0 0 0 2.841 2.037h39.87c2.938 0 4.125 3.784 1.714 5.462l-32.03 22.288a3 3 0 0 0-1.128 3.426l12.287 36.216c.93 2.742-2.179 5.08-4.555 3.427l-32.535-22.64a3 3 0 0 0-3.428 0l-32.535 22.64c-2.376 1.653-5.485-.685-4.555-3.427l12.287-36.216a3 3 0 0 0-1.128-3.426l-32.03-22.288c-2.411-1.678-1.224-5.462 1.714-5.462h39.87a3 3 0 0 0 2.841-2.037l12.409-36.576z"/><path fill="#38B77B" fill-opacity=".19" d="M99 30h77v147H99zm205-6h77v147h-77zm208 0h77v147h-77zm207 0h77v147h-77zm207 0h77v147h-77V24z"/></svg>